<?xml version="1.0" encoding="UTF-8" standalone="no"?>
<svg
   width="120"
   height="36"
   viewBox="0 0 120 36"
   fill="none"
   version="1.1"
   id="svg7"
   xmlns="http://www.w3.org/2000/svg"
   xmlns:svg="http://www.w3.org/2000/svg">
  <defs
     id="defs7" />
  <g
     id="g7"
     transform="translate(0.9747665,-1.9314595)">
    <path
       d="m 18.079422,28.689317 c -1.124791,-1.028286 -1.453145,-3.188682 -0.984541,-4.753768 0.81257,0.986707 1.938456,1.299425 3.104626,1.475702 1.800347,0.272384 3.568426,0.170551 5.240847,-0.652326 0.191315,-0.09411 0.368141,-0.2196 0.577184,-0.346331 0.156932,0.455135 0.197765,0.914751 0.142964,1.382584 -0.133279,1.13933 -0.700255,2.019474 -1.602034,2.68649 -0.360597,0.266906 -0.742158,0.505428 -1.114582,0.757147 -1.144161,0.773081 -1.453717,1.679865 -1.02378,2.998959 0.01021,0.03212 0.01935,0.06424 0.04245,0.142665 -0.584156,-0.261428 -1.010882,-0.642118 -1.335999,-1.142567 -0.343418,-0.528335 -0.506774,-1.11269 -0.515388,-1.744849 -0.0043,-0.307739 -0.0043,-0.618216 -0.04566,-0.921473 -0.101036,-0.73947 -0.448213,-1.070613 -1.102233,-1.089784 -0.671249,-0.01942 -1.202198,0.395379 -1.342996,1.048951 -0.01075,0.05004 -0.02634,0.09959 -0.04193,0.157853 z"
       fill="#17191e"
       id="path1"
       style="stroke-width:0.248979" />
    <path
       d="m 11.659607,23.674619 c 0,0 3.330724,-1.622426 6.670761,-1.622426 l 2.518279,-7.793609 c 0.09429,-0.376905 0.36956,-0.633056 0.680337,-0.633056 0.310776,0 0.586073,0.256151 0.680362,0.633056 l 2.518254,7.793609 c 3.955738,0 6.67086,1.622426 6.67086,1.622426 0,0 -5.657613,-15.4120861 -5.668668,-15.4430091 -0.162384,-0.455658 -0.436486,-0.74913 -0.806046,-0.74913 h -6.788927 c -0.36956,0 -0.632607,0.293472 -0.806046,0.74913 -0.01222,0.03035 -5.669166,15.4430091 -5.669166,15.4430091 z"
       fill="#17191e"
       id="path2"
       style="stroke-width:0.248979" />
    <path
       d="m 46.776436,18.717111 c 0,1.365703 -1.698788,2.181336 -4.050899,2.181336 -1.530975,0 -2.072256,-0.379371 -2.072256,-1.17603 0,-0.834605 0.671996,-1.232923 2.202722,-1.232923 1.381588,0 2.557518,0.01895 3.920433,0.189673 z m 0.01867,-1.688181 c -0.840058,-0.189672 -2.109604,-0.303481 -3.621658,-0.303481 -4.405694,0 -6.477702,1.043249 -6.477702,3.471174 0,2.522786 1.418686,3.490196 4.704221,3.490196 2.7816,0 4.666873,-0.701849 5.357792,-2.427974 h 0.111792 c -0.01867,0.417314 -0.03735,0.834604 -0.03735,1.157057 0,0.891522 0.149387,0.967386 0.877404,0.967386 h 3.434919 c -0.186734,-0.531099 -0.298771,-2.029607 -0.298771,-3.319446 0,-1.384675 0.05602,-2.427925 0.05602,-3.831572 0,-2.864211 -1.717215,-4.685173 -7.093677,-4.685173 -2.314764,0 -4.890956,0.398342 -6.850923,0.986357 0.186486,0.777688 0.447915,2.35206 0.578629,3.376338 1.698788,-0.79666 4.106918,-1.138086 5.973767,-1.138086 2.575943,0 3.285535,0.588015 3.285535,1.783018 z"
       fill="#17191e"
       id="path3"
       style="stroke-width:0.248979" />
    <path
       d="m 56.219736,19.513771 c -0.466592,0.05689 -1.101487,0.05689 -1.754814,0.05689 -0.690666,0 -1.325313,-0.01894 -1.754807,-0.07586 0,0.151753 -0.01865,0.322453 -0.01865,0.474206 0,2.371033 1.5494,3.755658 7.000563,3.755658 5.133457,0 6.7949,-1.365653 6.7949,-3.77463 0,-2.276196 -1.10124,-3.395309 -5.973518,-3.641899 -3.78972,-0.170726 -4.12559,-0.588016 -4.12559,-1.062222 0,-0.55007 0.485259,-0.834604 3.024103,-0.834604 2.632214,0 3.341553,0.360398 3.341553,1.119138 v 0.170697 c 0.373222,-0.01898 1.045469,-0.03792 1.736132,-0.03792 0.653327,0 1.362666,0.01894 1.773487,0.05689 0,-0.170725 0.01865,-0.322453 0.01865,-0.455234 0,-2.788347 -2.315008,-3.698816 -6.795147,-3.698816 -5.040348,0 -6.739131,1.232947 -6.739131,3.641899 0,2.162388 1.362913,3.509143 6.197847,3.717788 3.565387,0.113809 3.957529,0.512151 3.957529,1.062222 0,0.588015 -0.578877,0.853577 -3.080128,0.853577 -2.874967,0 -3.602979,-0.398343 -3.602979,-1.213975 z"
       fill="#17191e"
       id="path4"
       style="stroke-width:0.248979" />
    <path
       d="m 72.648402,9.5174899 c -1.362666,1.2708911 -3.808146,2.5417581 -5.170811,2.8831841 0.01865,0.701823 0.01865,1.991662 0.01865,2.693486 l 1.250629,0.01897 c -0.01866,1.346755 -0.03737,2.97802 -0.03737,4.059214 0,2.52276 1.325314,4.419612 5.45091,4.419612 1.736135,0 2.89364,-0.189698 4.330997,-0.493179 -0.149389,-0.929465 -0.317451,-2.352086 -0.373469,-3.433254 -0.858728,0.284509 -1.941295,0.436262 -3.136146,0.436262 -1.661443,0 -2.333437,-0.455235 -2.333437,-1.764045 0,-1.138086 0,-2.200333 0.01865,-3.186666 2.128276,0.01898 4.256305,0.05689 5.506928,0.09484 -0.01865,-0.986358 0.01865,-2.408977 0.0747,-3.357391 -1.810832,0.03795 -3.845491,0.05691 -5.525607,0.05691 0.01865,-0.834605 0.03737,-1.631264 0.05602,-2.4279491 z"
       fill="#17191e"
       id="path5"
       style="stroke-width:0.248979" />
    <path
       d="m 83.797959,14.525117 c 0.01865,-0.986358 0.03737,-1.820937 0.05602,-2.636595 h -3.752374 c 0.05603,1.63129 0.05603,3.300499 0.05603,5.747395 0,2.446897 -0.01865,4.135078 -0.05603,5.747371 h 4.293658 c -0.0747,-1.138086 -0.09337,-3.053885 -0.09337,-4.685149 0,-2.579677 1.045468,-3.319446 3.41625,-3.319446 1.101487,0 1.885524,0.132781 2.57619,0.379371 0.01865,-0.967386 0.205407,-2.84524 0.317203,-3.679844 -0.709345,-0.208645 -1.493381,-0.341426 -2.445479,-0.341426 -2.034659,-0.01897 -3.528041,0.815632 -4.218713,2.807295 z"
       fill="#17191e"
       id="path6"
       style="stroke-width:0.248979" />
    <path
       d="m 102.48935,17.560029 c 0,2.067551 -1.49338,3.034936 -3.845487,3.034936 -2.333441,0 -3.826816,-0.910493 -3.826816,-3.034936 0,-2.124444 1.512054,-2.921104 3.826816,-2.921104 2.333437,0 3.845487,0.853577 3.845487,2.921104 z m 3.90151,-0.09484 c 0,-4.116105 -3.21084,-5.956015 -7.746997,-5.956015 -4.554834,0 -7.653881,1.83991 -7.653881,5.956015 0,4.097159 2.89364,6.297565 7.635201,6.297565 4.778917,0 7.765677,-2.200406 7.765677,-6.297565 z"
       fill="#17191e"
       id="path7"
       style="stroke-width:0.248979" />
  </g>
</svg>
